<svg width="74" height="100" viewBox="0 0 74 100" fill="none" xmlns="http://www.w3.org/2000/svg">
<mask id="mask0_2_10" style="mask-type:alpha" maskUnits="userSpaceOnUse" x="0" y="1" width="71" height="98">
<path d="M44.398 1.43036H6.86688C3.22415 1.43036 0.243736 4.41077 0.243736 8.0535V91.9465C0.243736 95.5893 3.22415 98.5697 6.86688 98.5697H64.2674C67.9101 98.5697 70.8905 95.5893 70.8905 91.9465V27.9229L44.398 1.43036Z" fill="white"/>
</mask>
<g mask="url(#mask0_2_10)">
<path d="M44.398 1.43036H6.86688C3.22415 1.43036 0.243736 4.41077 0.243736 8.0535V91.9465C0.243736 95.5893 3.22415 98.5697 6.86688 98.5697H64.2674C67.9101 98.5697 70.8905 95.5893 70.8905 91.9465V27.9229L55.4365 16.8843L44.398 1.43036Z" fill="#0F9D58"/>
</g>
<mask id="mask1_2_10" style="mask-type:alpha" maskUnits="userSpaceOnUse" x="0" y="1" width="71" height="98">
<path d="M44.398 1.43036H6.86688C3.22415 1.43036 0.243736 4.41077 0.243736 8.0535V91.9465C0.243736 95.5893 3.22415 98.5697 6.86688 98.5697H64.2674C67.9101 98.5697 70.8905 95.5893 70.8905 91.9465V27.9229L44.398 1.43036Z" fill="white"/>
</mask>
<g mask="url(#mask1_2_10)">
<path d="M17.9054 48.8962V80.908H53.2288V48.8962H17.9054ZM33.3594 76.4926H22.3209V70.9733H33.3594V76.4926ZM33.3594 67.6617H22.3209V62.1424H33.3594V67.6617ZM33.3594 58.8309H22.3209V53.3116H33.3594V58.8309ZM48.8134 76.4926H37.7748V70.9733H48.8134V76.4926ZM48.8134 67.6617H37.7748V62.1424H48.8134V67.6617ZM48.8134 58.8309H37.7748V53.3116H48.8134V58.8309Z" fill="#F1F1F1"/>
</g>
<mask id="mask2_2_10" style="mask-type:alpha" maskUnits="userSpaceOnUse" x="0" y="1" width="71" height="98">
<path d="M44.398 1.43036H6.86688C3.22415 1.43036 0.243736 4.41077 0.243736 8.0535V91.9465C0.243736 95.5893 3.22415 98.5697 6.86688 98.5697H64.2674C67.9101 98.5697 70.8905 95.5893 70.8905 91.9465V27.9229L44.398 1.43036Z" fill="white"/>
</mask>
<g mask="url(#mask2_2_10)">
<path d="M46.3352 25.9856L70.8905 50.5354V27.9229L46.3352 25.9856Z" fill="url(#paint0_linear_2_10)"/>
</g>
<mask id="mask3_2_10" style="mask-type:alpha" maskUnits="userSpaceOnUse" x="0" y="1" width="71" height="98">
<path d="M44.398 1.43036H6.86688C3.22415 1.43036 0.243736 4.41077 0.243736 8.0535V91.9465C0.243736 95.5893 3.22415 98.5697 6.86688 98.5697H64.2674C67.9101 98.5697 70.8905 95.5893 70.8905 91.9465V27.9229L44.398 1.43036Z" fill="white"/>
</mask>
<g mask="url(#mask3_2_10)">
<path d="M44.398 1.43036V21.2998C44.398 24.959 47.3618 27.9229 51.0211 27.9229H70.8905L44.398 1.43036Z" fill="#87CEAC"/>
</g>
<mask id="mask4_2_10" style="mask-type:alpha" maskUnits="userSpaceOnUse" x="0" y="1" width="71" height="98">
<path d="M44.398 1.43036H6.86688C3.22415 1.43036 0.243736 4.41077 0.243736 8.0535V91.9465C0.243736 95.5893 3.22415 98.5697 6.86688 98.5697H64.2674C67.9101 98.5697 70.8905 95.5893 70.8905 91.9465V27.9229L44.398 1.43036Z" fill="white"/>
</mask>
<g mask="url(#mask4_2_10)">
<path d="M6.86688 1.43036C3.22415 1.43036 0.243736 4.41077 0.243736 8.0535V8.60542C0.243736 4.9627 3.22415 1.98229 6.86688 1.98229H44.398V1.43036H6.86688Z" fill="white" fill-opacity="0.2"/>
</g>
<mask id="mask5_2_10" style="mask-type:alpha" maskUnits="userSpaceOnUse" x="0" y="1" width="71" height="98">
<path d="M44.398 1.43036H6.86688C3.22415 1.43036 0.243736 4.41077 0.243736 8.0535V91.9465C0.243736 95.5893 3.22415 98.5697 6.86688 98.5697H64.2674C67.9101 98.5697 70.8905 95.5893 70.8905 91.9465V27.9229L44.398 1.43036Z" fill="white"/>
</mask>
<g mask="url(#mask5_2_10)">
<path d="M65.2674 98.0177H7.86688C4.22415 98.0177 1.24374 95.0373 1.24374 91.3946V91.9465C1.24374 95.5893 4.22415 98.5697 7.86688 98.5697H65.2674C68.9101 98.5697 71.8905 95.5893 71.8905 91.9465V91.3946C71.8905 95.0373 68.9101 98.0177 65.2674 98.0177Z" fill="#263238" fill-opacity="0.2"/>
</g>
<mask id="mask6_2_10" style="mask-type:alpha" maskUnits="userSpaceOnUse" x="0" y="1" width="71" height="98">
<path d="M44.398 1.43036H6.86688C3.22415 1.43036 0.243736 4.41077 0.243736 8.0535V91.9465C0.243736 95.5893 3.22415 98.5697 6.86688 98.5697H64.2674C67.9101 98.5697 70.8905 95.5893 70.8905 91.9465V27.9229L44.398 1.43036Z" fill="white"/>
</mask>
<g mask="url(#mask6_2_10)">
<path d="M51.0211 27.9229C47.3618 27.9229 44.398 24.959 44.398 21.2998V21.8517C44.398 25.511 47.3618 28.4748 51.0211 28.4748H70.8905V27.9229H51.0211Z" fill="#263238" fill-opacity="0.1"/>
<path d="M44.398 1.43036H6.86688C3.22415 1.43036 0.243736 4.41077 0.243736 8.0535V91.9465C0.243736 95.5893 3.22415 98.5697 6.86688 98.5697H64.2674C67.9101 98.5697 70.8905 95.5893 70.8905 91.9465V27.9229L44.398 1.43036Z" fill="url(#paint1_radial_2_10)"/>
</g>
<defs>
<linearGradient id="paint0_linear_2_10" x1="58.6142" y1="28.0935" x2="58.6142" y2="50.5388" gradientUnits="userSpaceOnUse">
<stop stop-color="#263238" stop-opacity="0.2"/>
<stop offset="1" stop-color="#263238" stop-opacity="0.02"/>
</linearGradient>
<radialGradient id="paint1_radial_2_10" cx="0" cy="0" r="1" gradientUnits="userSpaceOnUse" gradientTransform="translate(2.48186 3.36121) scale(113.917 113.917)">
<stop stop-color="white" stop-opacity="0.1"/>
<stop offset="1" stop-color="white" stop-opacity="0"/>
</radialGradient>
</defs>
</svg>
