<svg width="301" height="300" viewBox="0 0 301 300" fill="none" xmlns="http://www.w3.org/2000/svg">
<path d="M229 71.0527L157.948 63.1582L71.1057 71.0527L63.2097 150.001L71.1042 228.949L150.052 238.817L229 228.949L236.895 148.028L229 71.0527Z" fill="white"/>
<path d="M103.494 193.539C97.5926 189.552 93.5066 183.73 91.2761 176.032L104.974 170.388C106.218 175.125 108.388 178.795 111.487 181.401C114.567 184.006 118.317 185.289 122.698 185.289C127.179 185.289 131.028 183.927 134.244 181.203C137.46 178.479 139.08 175.005 139.08 170.802C139.08 166.5 137.382 162.985 133.987 160.263C130.593 157.54 126.33 156.177 121.237 156.177H113.323V142.618H120.427C124.809 142.618 128.5 141.435 131.5 139.066C134.5 136.698 136 133.461 136 129.336C136 125.665 134.658 122.743 131.974 120.553C129.291 118.363 125.895 117.258 121.77 117.258C117.744 117.258 114.546 118.324 112.177 120.475C109.809 122.626 108.091 125.271 107.007 128.389L93.4481 122.745C95.2436 117.652 98.5406 113.152 103.375 109.264C108.211 105.376 114.388 103.422 121.888 103.422C127.434 103.422 132.427 104.488 136.849 106.639C141.27 108.79 144.744 111.771 147.25 115.56C149.757 119.368 151 123.633 151 128.368C151 133.204 149.836 137.289 147.507 140.644C145.177 144 142.315 146.565 138.921 148.362V149.17C143.401 151.045 147.052 153.907 149.934 157.756C152.796 161.605 154.236 166.204 154.236 171.573C154.236 176.941 152.874 181.737 150.15 185.941C147.426 190.146 143.656 193.461 138.88 195.868C134.085 198.276 128.697 199.5 122.716 199.5C115.789 199.519 109.395 197.526 103.494 193.539Z" fill="#1A73E8"/>
<path d="M187.552 125.566L172.591 136.441L165.072 125.033L192.052 105.572H202.395V197.368H187.552V125.566Z" fill="#1A73E8"/>
<path d="M229 300L300.052 228.948L264.526 213.159L229 228.948L213.211 264.474L229 300Z" fill="#EA4335"/>
<path d="M55.3152 264.474L71.1042 300H228.999V228.948H71.1042L55.3152 264.474Z" fill="#34A853"/>
<path d="M23.7357 0C10.6512 0 0.0522461 10.599 0.0522461 23.6835V228.946L35.5782 244.735L71.1042 228.946V71.052H228.999L244.788 35.526L229 0H23.7357Z" fill="#4285F4"/>
<path d="M0.0522461 228.948V276.317C0.0522461 289.403 10.6512 300 23.7357 300H71.1042V228.948H0.0522461Z" fill="#188038"/>
<path d="M229 71.0517V228.946H300.052V71.0517L264.526 55.2627L229 71.0517Z" fill="#FBBC04"/>
<path d="M300.052 71.052V23.6835C300.052 10.5975 289.453 0 276.369 0H229V71.052H300.052Z" fill="#1967D2"/>
</svg>
