<svg width="398" height="119" viewBox="0 0 398 119" fill="none" xmlns="http://www.w3.org/2000/svg">
<g clip-path="url(#clip0_1_41)">
<mask id="mask0_1_41" style="mask-type:luminance" maskUnits="userSpaceOnUse" x="47" y="-1" width="72" height="97">
<path d="M47 -0.453125H119V95.6667H47V-0.453125Z" fill="white"/>
</mask>
<g mask="url(#mask0_1_41)">
<path d="M70.8073 35.4063L83.0625 23.1458L118.906 59.0052L83.0625 94.8594L70.776 82.5677L94.3646 58.9688L70.8073 35.4063ZM47.2188 11.8073L59.5052 24.099L71.7552 11.8385L59.474 -0.453125L47.2188 11.8073Z" fill="#7160F5"/>
</g>
<mask id="mask1_1_41" style="mask-type:luminance" maskUnits="userSpaceOnUse" x="0" y="22" width="73" height="97">
<path d="M0.041748 22.3334H72.3334V118.547H0.041748V22.3334Z" fill="white"/>
</mask>
<g mask="url(#mask1_1_41)">
<path d="M48.1668 82.5677L71.7553 106.172L59.5053 118.427L23.6563 82.5677L59.573 46.6459L71.823 58.9011L48.1668 82.5677ZM48.2709 35.3386L35.9793 23.0469L0.0677948 58.9688L12.3543 71.2604L48.2709 35.3386Z" fill="#7160F5"/>
</g>
<path d="M187.543 50.978C195.136 50.978 200.98 53.2228 205.063 57.7072C209.147 62.1968 211.188 68.353 211.188 76.1864C211.188 77.3947 211.157 78.3114 211.105 78.9364H178.668C179.418 81.5926 180.709 83.6239 182.543 85.0405C184.386 86.4468 186.631 87.1447 189.272 87.1447C191.282 87.1447 193.22 86.7437 195.084 85.9364C196.959 85.1343 198.673 83.952 200.23 82.3947L208.272 90.4155C205.855 93.1239 202.928 95.1864 199.501 96.603C196.084 98.0093 192.214 98.7072 187.897 98.7072C182.897 98.7072 178.522 97.728 174.772 95.7697C171.032 93.8114 168.173 91.0562 166.188 87.4989C164.199 83.9312 163.209 79.7853 163.209 75.0614C163.209 70.2853 164.214 66.0718 166.23 62.4155C168.24 58.7645 171.089 55.9468 174.772 53.9572C178.464 51.9728 182.72 50.978 187.543 50.978ZM196.272 70.7489C196.272 68.0405 195.48 65.8687 193.897 64.228C192.313 62.5926 190.23 61.7697 187.647 61.7697C185.23 61.7697 183.199 62.577 181.563 64.1864C179.923 65.8009 178.839 67.9884 178.313 70.7489H196.272Z" fill="#03030B"/>
<path d="M214.303 98.1865V51.4989H229.574V98.1865H214.303ZM221.991 30.0198C224.334 30.0198 226.272 30.7854 227.803 32.3114C229.329 33.8271 230.095 35.7906 230.095 38.2073C230.095 40.5719 229.329 42.5302 227.803 44.0823C226.272 45.6396 224.334 46.4156 221.991 46.4156C219.626 46.4156 217.683 45.6396 216.157 44.0823C214.626 42.5302 213.866 40.5719 213.866 38.2073C213.866 35.7906 214.626 33.8271 216.157 32.3114C217.683 30.7854 219.626 30.0198 221.991 30.0198Z" fill="#03030B"/>
<path d="M266.938 95.7697C265.199 96.7437 263.209 97.5093 260.959 98.0614C258.719 98.6031 256.459 98.8739 254.167 98.8739C249.553 98.8739 245.824 97.5562 242.98 94.9156C240.131 92.2645 238.709 88.6135 238.709 83.9572V63.9364H232.251V53.7489H238.709V40.8114H253.98V53.7489H266.063V63.9364H253.98V81.5406C253.98 84.8218 255.334 86.4572 258.042 86.4572C259.709 86.4572 261.693 85.9364 264.001 84.8947L266.938 95.7697Z" fill="#03030B"/>
<path d="M291.168 50.978C296.235 50.978 300.694 51.9728 304.543 53.9572C308.402 55.9468 311.397 58.7384 313.522 62.3322C315.647 65.9312 316.709 70.0926 316.709 74.8114C316.709 79.577 315.647 83.7593 313.522 87.353C311.397 90.952 308.402 93.7437 304.543 95.728C300.694 97.7176 296.235 98.7072 291.168 98.7072C286.11 98.7072 281.652 97.7176 277.793 95.728C273.944 93.7437 270.965 90.952 268.855 87.353C266.756 83.7593 265.709 79.577 265.709 74.8114C265.709 70.0926 266.756 65.9312 268.855 62.3322C270.965 58.7384 273.944 55.9468 277.793 53.9572C281.652 51.9728 286.11 50.978 291.168 50.978ZM291.168 63.4155C288.178 63.4155 285.761 64.478 283.918 66.603C282.084 68.728 281.168 71.5197 281.168 74.978C281.168 78.478 282.084 81.3009 283.918 83.4364C285.761 85.5614 288.178 86.6239 291.168 86.6239C294.22 86.6239 296.668 85.5614 298.501 83.4364C300.345 81.3009 301.272 78.478 301.272 74.978C301.272 71.5197 300.334 68.728 298.459 66.603C296.595 64.478 294.168 63.4155 291.168 63.4155Z" fill="#03030B"/>
<path d="M381.084 98.1864H364.272L360.126 87.4781H333.98L329.751 98.1864H313.522L339.501 37.6864H355.73L381.084 98.1864ZM347.188 53.8322L338.73 75.4156H355.459L347.188 53.8322Z" fill="#7160F5"/>
<path d="M381.784 98.1864V37.6864H397.575V98.1864H381.784Z" fill="#7160F5"/>
<path d="M158.651 44.9125C157.094 44.9125 155.823 45.3448 154.838 46.2041C153.864 47.0687 153.38 48.3031 153.38 49.9125V52.9333H163.734V63.1208H153.38V97.3708H138.109V63.1208H131.818V52.9333H138.109V48.6208C138.109 43.6781 139.76 39.7823 143.068 36.9333C146.385 34.0896 150.63 32.6625 155.797 32.6625C159.198 32.6625 162.536 33.2614 165.818 34.4541L163.838 46.1208C161.531 45.3187 159.802 44.9125 158.651 44.9125Z" fill="#03030B"/>
</g>
<defs>
<clipPath id="clip0_1_41">
<rect width="398" height="119" fill="white"/>
</clipPath>
</defs>
</svg>
