<svg xmlns="http://www.w3.org/2000/svg" xmlns:xlink="http://www.w3.org/1999/xlink" width="500" zoomAndPan="magnify" viewBox="0 0 375 374.999991" height="500" preserveAspectRatio="xMidYMid meet" version="1.0"><defs><g/><clipPath id="ea4b8577e5"><path d="M 41 143.546875 L 94.132812 143.546875 L 94.132812 215 L 41 215 Z M 41 143.546875 " clip-rule="nonzero"/></clipPath><clipPath id="196959e924"><path d="M 6.382812 160 L 60 160 L 60 231.296875 L 6.382812 231.296875 Z M 6.382812 160 " clip-rule="nonzero"/></clipPath></defs><g fill="#ffffff" fill-opacity="1"><g transform="translate(122.087969, 216.549274)"><g><path d="M 18.671875 -33.359375 C 24.035156 -33.359375 28.160156 -31.769531 31.046875 -28.59375 C 33.929688 -25.425781 35.375 -21.082031 35.375 -15.5625 C 35.375 -14.707031 35.351562 -14.054688 35.3125 -13.609375 L 12.390625 -13.609375 C 12.910156 -11.734375 13.820312 -10.296875 15.125 -9.296875 C 16.425781 -8.304688 18.015625 -7.8125 19.890625 -7.8125 C 21.304688 -7.8125 22.675781 -8.09375 24 -8.65625 C 25.320312 -9.226562 26.535156 -10.0625 27.640625 -11.15625 L 33.3125 -5.484375 C 31.601562 -3.578125 29.535156 -2.125 27.109375 -1.125 C 24.691406 -0.132812 21.957031 0.359375 18.90625 0.359375 C 15.375 0.359375 12.285156 -0.328125 9.640625 -1.703125 C 6.992188 -3.085938 4.96875 -5.039062 3.5625 -7.5625 C 2.164062 -10.082031 1.46875 -13.007812 1.46875 -16.34375 C 1.46875 -19.71875 2.175781 -22.695312 3.59375 -25.28125 C 5.019531 -27.863281 7.035156 -29.851562 9.640625 -31.25 C 12.242188 -32.65625 15.253906 -33.359375 18.671875 -33.359375 Z M 24.828125 -19.390625 C 24.828125 -21.304688 24.265625 -22.84375 23.140625 -24 C 22.023438 -25.15625 20.554688 -25.734375 18.734375 -25.734375 C 17.023438 -25.734375 15.585938 -25.164062 14.421875 -24.03125 C 13.265625 -22.894531 12.503906 -21.347656 12.140625 -19.390625 Z M 24.828125 -19.390625 "/></g></g></g><g fill="#ffffff" fill-opacity="1"><g transform="translate(155.513627, 216.549274)"><g><path d="M 4.140625 0 L 4.140625 -33 L 14.9375 -33 L 14.9375 0 Z M 9.5625 -48.1875 C 11.238281 -48.1875 12.613281 -47.644531 13.6875 -46.5625 C 14.757812 -45.488281 15.296875 -44.097656 15.296875 -42.390625 C 15.296875 -40.722656 14.757812 -39.335938 13.6875 -38.234375 C 12.613281 -37.140625 11.238281 -36.59375 9.5625 -36.59375 C 7.894531 -36.59375 6.523438 -37.140625 5.453125 -38.234375 C 4.378906 -39.335938 3.84375 -40.722656 3.84375 -42.390625 C 3.84375 -44.097656 4.378906 -45.488281 5.453125 -46.5625 C 6.523438 -47.644531 7.894531 -48.1875 9.5625 -48.1875 Z M 9.5625 -48.1875 "/></g></g></g><g fill="#ffffff" fill-opacity="1"><g transform="translate(171.250417, 216.549274)"><g><path d="M 25.625 -1.703125 C 24.40625 -1.015625 23 -0.476562 21.40625 -0.09375 C 19.820312 0.289062 18.21875 0.484375 16.59375 0.484375 C 13.34375 0.484375 10.707031 -0.445312 8.6875 -2.3125 C 6.675781 -4.1875 5.671875 -6.769531 5.671875 -10.0625 L 5.671875 -24.21875 L 1.09375 -24.21875 L 1.09375 -31.421875 L 5.671875 -31.421875 L 5.671875 -40.5625 L 16.46875 -40.5625 L 16.46875 -31.421875 L 25.015625 -31.421875 L 25.015625 -24.21875 L 16.46875 -24.21875 L 16.46875 -11.765625 C 16.46875 -9.453125 17.425781 -8.296875 19.34375 -8.296875 C 20.519531 -8.296875 21.921875 -8.660156 23.546875 -9.390625 Z M 25.625 -1.703125 "/></g></g></g><g fill="#ffffff" fill-opacity="1"><g transform="translate(194.550718, 216.549274)"><g><path d="M 19.453125 -33.359375 C 23.035156 -33.359375 26.1875 -32.65625 28.90625 -31.25 C 31.632812 -29.851562 33.75 -27.882812 35.25 -25.34375 C 36.757812 -22.800781 37.515625 -19.863281 37.515625 -16.53125 C 37.515625 -13.15625 36.757812 -10.195312 35.25 -7.65625 C 33.75 -5.113281 31.632812 -3.140625 28.90625 -1.734375 C 26.1875 -0.335938 23.035156 0.359375 19.453125 0.359375 C 15.878906 0.359375 12.726562 -0.335938 10 -1.734375 C 7.28125 -3.140625 5.175781 -5.113281 3.6875 -7.65625 C 2.207031 -10.195312 1.46875 -13.15625 1.46875 -16.53125 C 1.46875 -19.863281 2.207031 -22.800781 3.6875 -25.34375 C 5.175781 -27.882812 7.28125 -29.851562 10 -31.25 C 12.726562 -32.65625 15.878906 -33.359375 19.453125 -33.359375 Z M 19.453125 -24.578125 C 17.335938 -24.578125 15.628906 -23.820312 14.328125 -22.3125 C 13.035156 -20.8125 12.390625 -18.84375 12.390625 -16.40625 C 12.390625 -13.925781 13.035156 -11.929688 14.328125 -10.421875 C 15.628906 -8.921875 17.335938 -8.171875 19.453125 -8.171875 C 21.609375 -8.171875 23.335938 -8.921875 24.640625 -10.421875 C 25.941406 -11.929688 26.59375 -13.925781 26.59375 -16.40625 C 26.59375 -18.84375 25.929688 -20.8125 24.609375 -22.3125 C 23.285156 -23.820312 21.566406 -24.578125 19.453125 -24.578125 Z M 19.453125 -24.578125 "/></g></g></g><g fill="#ffffff" fill-opacity="1"><g transform="translate(99.639967, 216.549274)"><g><path d="M 20.625 -37.09375 C 19.519531 -37.09375 18.617188 -36.785156 17.921875 -36.171875 C 17.234375 -35.566406 16.890625 -34.691406 16.890625 -33.546875 L 16.890625 -31.421875 L 24.21875 -31.421875 L 24.21875 -24.21875 L 16.890625 -24.21875 L 16.890625 0 L 6.09375 0 L 6.09375 -24.21875 L 1.640625 -24.21875 L 1.640625 -31.421875 L 6.09375 -31.421875 L 6.09375 -34.46875 C 6.09375 -37.96875 7.257812 -40.722656 9.59375 -42.734375 C 11.9375 -44.742188 14.941406 -45.75 18.609375 -45.75 C 21.003906 -45.75 23.363281 -45.320312 25.6875 -44.46875 L 24.28125 -36.234375 C 22.65625 -36.804688 21.4375 -37.09375 20.625 -37.09375 Z M 20.625 -37.09375 "/></g></g></g><g fill="#7160f5" fill-opacity="1"><g transform="translate(232.056991, 216.549274)"><g><path d="M 35.078125 -28.25 C 33.691406 -29.988281 32.039062 -31.378906 30.125 -32.421875 C 28.21875 -33.460938 26.332031 -33.984375 24.46875 -33.984375 C 22.3125 -33.984375 20.347656 -33.441406 18.578125 -32.359375 C 16.804688 -31.285156 15.410156 -29.800781 14.390625 -27.90625 C 13.378906 -26.019531 12.875 -23.914062 12.875 -21.59375 C 12.875 -19.269531 13.378906 -17.160156 14.390625 -15.265625 C 15.410156 -13.378906 16.804688 -11.898438 18.578125 -10.828125 C 20.347656 -9.753906 22.3125 -9.21875 24.46875 -9.21875 C 26.207031 -9.21875 28.03125 -9.660156 29.9375 -10.546875 C 31.851562 -11.441406 33.566406 -12.664062 35.078125 -14.21875 L 41.609375 -7.203125 C 39.285156 -4.753906 36.523438 -2.804688 33.328125 -1.359375 C 30.140625 0.078125 26.976562 0.796875 23.84375 0.796875 C 19.613281 0.796875 15.789062 -0.175781 12.375 -2.125 C 8.96875 -4.082031 6.285156 -6.75 4.328125 -10.125 C 2.378906 -13.5 1.40625 -17.28125 1.40625 -21.46875 C 1.40625 -25.613281 2.398438 -29.351562 4.390625 -32.6875 C 6.378906 -36.03125 9.113281 -38.65625 12.59375 -40.5625 C 16.070312 -42.476562 19.96875 -43.4375 24.28125 -43.4375 C 27.445312 -43.4375 30.578125 -42.773438 33.671875 -41.453125 C 36.765625 -40.128906 39.390625 -38.328125 41.546875 -36.046875 Z M 35.078125 -28.25 "/></g></g></g><g fill="#7160f5" fill-opacity="1"><g transform="translate(270.911302, 216.549274)"><g><path d="M 26.234375 -33.421875 C 29.890625 -33.421875 32.804688 -32.28125 34.984375 -30 C 37.160156 -27.726562 38.25 -24.660156 38.25 -20.796875 L 38.25 0 L 27.390625 0 L 27.390625 -17.6875 C 27.390625 -19.5625 26.890625 -21.035156 25.890625 -22.109375 C 24.898438 -23.191406 23.53125 -23.734375 21.78125 -23.734375 C 19.78125 -23.691406 18.203125 -22.988281 17.046875 -21.625 C 15.890625 -20.257812 15.3125 -18.476562 15.3125 -16.28125 L 15.3125 0 L 4.453125 0 L 4.453125 -45.265625 L 15.3125 -45.265625 L 15.3125 -27.640625 C 16.488281 -29.546875 18 -30.984375 19.84375 -31.953125 C 21.695312 -32.929688 23.828125 -33.421875 26.234375 -33.421875 Z M 26.234375 -33.421875 "/></g></g></g><g fill="#7160f5" fill-opacity="1"><g transform="translate(308.972664, 216.549274)"><g><path d="M 19.03125 -33.421875 C 23.582031 -33.421875 27.117188 -32.375 29.640625 -30.28125 C 32.160156 -28.1875 33.441406 -25.25 33.484375 -21.46875 L 33.484375 0 L 22.8125 0 L 22.8125 -3.71875 C 20.613281 -0.914062 17.300781 0.484375 12.875 0.484375 C 9.375 0.484375 6.617188 -0.457031 4.609375 -2.34375 C 2.597656 -4.238281 1.59375 -6.734375 1.59375 -9.828125 C 1.59375 -12.953125 2.675781 -15.390625 4.84375 -17.140625 C 7.019531 -18.890625 10.144531 -19.785156 14.21875 -19.828125 L 22.8125 -19.828125 L 22.8125 -20.1875 C 22.8125 -21.769531 22.269531 -22.988281 21.1875 -23.84375 C 20.113281 -24.695312 18.5625 -25.125 16.53125 -25.125 C 15.144531 -25.125 13.585938 -24.898438 11.859375 -24.453125 C 10.128906 -24.015625 8.394531 -23.367188 6.65625 -22.515625 L 3.65625 -29.828125 C 6.34375 -31.046875 8.914062 -31.945312 11.375 -32.53125 C 13.832031 -33.125 16.382812 -33.421875 19.03125 -33.421875 Z M 16.21875 -6.890625 C 17.851562 -6.890625 19.28125 -7.285156 20.5 -8.078125 C 21.71875 -8.867188 22.488281 -9.894531 22.8125 -11.15625 L 22.8125 -14.03125 L 16.34375 -14.03125 C 13.289062 -14.03125 11.765625 -12.890625 11.765625 -10.609375 C 11.765625 -9.472656 12.160156 -8.566406 12.953125 -7.890625 C 13.753906 -7.222656 14.84375 -6.890625 16.21875 -6.890625 Z M 16.21875 -6.890625 "/></g></g></g><g fill="#7160f5" fill-opacity="1"><g transform="translate(342.276325, 216.549274)"><g><path d="M 25.625 -1.703125 C 24.40625 -1.015625 23 -0.476562 21.40625 -0.09375 C 19.820312 0.289062 18.21875 0.484375 16.59375 0.484375 C 13.34375 0.484375 10.707031 -0.445312 8.6875 -2.3125 C 6.675781 -4.1875 5.671875 -6.769531 5.671875 -10.0625 L 5.671875 -24.21875 L 1.09375 -24.21875 L 1.09375 -31.421875 L 5.671875 -31.421875 L 5.671875 -40.5625 L 16.46875 -40.5625 L 16.46875 -31.421875 L 25.015625 -31.421875 L 25.015625 -24.21875 L 16.46875 -24.21875 L 16.46875 -11.765625 C 16.46875 -9.453125 17.425781 -8.296875 19.34375 -8.296875 C 20.519531 -8.296875 21.921875 -8.660156 23.546875 -9.390625 Z M 25.625 -1.703125 "/></g></g></g><g clip-path="url(#ea4b8577e5)"><path fill="#7160f5" d="M 58.703125 170.058594 L 67.761719 160.996094 L 94.261719 187.507812 L 67.761719 214.019531 L 58.675781 204.929688 L 76.117188 187.480469 Z M 41.257812 152.609375 L 50.34375 161.699219 L 59.402344 152.636719 L 50.320312 143.546875 Z M 41.257812 152.609375 " fill-opacity="1" fill-rule="nonzero"/></g><g clip-path="url(#196959e924)"><path fill="#ffffff" d="M 41.960938 204.929688 L 59.402344 222.378906 L 50.34375 231.441406 L 23.839844 204.929688 L 50.394531 178.371094 L 59.453125 187.433594 Z M 42.039062 170.007812 L 32.953125 160.921875 L 6.398438 187.484375 L 15.484375 196.570312 Z M 42.039062 170.007812 " fill-opacity="1" fill-rule="nonzero"/></g></svg>