<svg xmlns="http://www.w3.org/2000/svg" xmlns:xlink="http://www.w3.org/1999/xlink" width="500" zoomAndPan="magnify" viewBox="0 0 375 374.999991" height="500" preserveAspectRatio="xMidYMid meet" version="1.0"><defs><g/><clipPath id="d4410cb361"><path d="M 72 142.910156 L 126 142.910156 L 126 215 L 72 215 Z M 72 142.910156 " clip-rule="nonzero"/></clipPath><clipPath id="9db4ca3fd9"><path d="M 36.78125 160 L 91 160 L 91 232.160156 L 36.78125 232.160156 Z M 36.78125 160 " clip-rule="nonzero"/></clipPath></defs><g clip-path="url(#d4410cb361)"><path fill="#7160f5" d="M 89.855469 169.804688 L 99.046875 160.609375 L 125.929688 187.503906 L 99.046875 214.394531 L 89.832031 205.175781 L 107.523438 187.476562 Z M 72.164062 152.105469 L 81.378906 161.324219 L 90.566406 152.128906 L 81.355469 142.910156 Z M 72.164062 152.105469 " fill-opacity="1" fill-rule="nonzero"/></g><g clip-path="url(#9db4ca3fd9)"><path fill="#7160f5" d="M 72.875 205.175781 L 90.566406 222.878906 L 81.378906 232.070312 L 54.492188 205.175781 L 81.429688 178.234375 L 90.617188 187.425781 Z M 72.953125 169.753906 L 63.734375 160.535156 L 36.800781 187.476562 L 46.015625 196.695312 Z M 72.953125 169.753906 " fill-opacity="1" fill-rule="nonzero"/></g><g fill="#03030b" fill-opacity="1"><g transform="translate(157.610091, 216.889819)"><g><path d="M 19.796875 -35.40625 C 25.492188 -35.40625 29.875 -33.722656 32.9375 -30.359375 C 36 -26.992188 37.53125 -22.375 37.53125 -16.5 C 37.53125 -15.59375 37.507812 -14.90625 37.46875 -14.4375 L 13.140625 -14.4375 C 13.703125 -12.445312 14.671875 -10.921875 16.046875 -9.859375 C 17.429688 -8.804688 19.113281 -8.28125 21.09375 -8.28125 C 22.601562 -8.28125 24.054688 -8.582031 25.453125 -9.1875 C 26.859375 -9.789062 28.144531 -10.675781 29.3125 -11.84375 L 35.34375 -5.828125 C 33.53125 -3.796875 31.335938 -2.25 28.765625 -1.1875 C 26.203125 -0.132812 23.300781 0.390625 20.0625 0.390625 C 16.3125 0.390625 13.03125 -0.34375 10.21875 -1.8125 C 7.414062 -3.28125 5.269531 -5.347656 3.78125 -8.015625 C 2.289062 -10.691406 1.546875 -13.800781 1.546875 -17.34375 C 1.546875 -20.925781 2.300781 -24.085938 3.8125 -26.828125 C 5.320312 -29.566406 7.457031 -31.679688 10.21875 -33.171875 C 12.988281 -34.660156 16.179688 -35.40625 19.796875 -35.40625 Z M 26.34375 -20.578125 C 26.34375 -22.609375 25.75 -24.238281 24.5625 -25.46875 C 23.375 -26.695312 21.8125 -27.3125 19.875 -27.3125 C 18.0625 -27.3125 16.539062 -26.707031 15.3125 -25.5 C 14.082031 -24.289062 13.269531 -22.648438 12.875 -20.578125 Z M 26.34375 -20.578125 "/></g></g></g><g fill="#03030b" fill-opacity="1"><g transform="translate(193.071175, 216.889819)"><g><path d="M 4.40625 0 L 4.40625 -35.015625 L 15.859375 -35.015625 L 15.859375 0 Z M 10.171875 -51.125 C 11.929688 -51.125 13.382812 -50.550781 14.53125 -49.40625 C 15.675781 -48.269531 16.25 -46.796875 16.25 -44.984375 C 16.25 -43.210938 15.675781 -41.742188 14.53125 -40.578125 C 13.382812 -39.410156 11.929688 -38.828125 10.171875 -38.828125 C 8.398438 -38.828125 6.941406 -39.410156 5.796875 -40.578125 C 4.648438 -41.742188 4.078125 -43.210938 4.078125 -44.984375 C 4.078125 -46.796875 4.648438 -48.269531 5.796875 -49.40625 C 6.941406 -50.550781 8.398438 -51.125 10.171875 -51.125 Z M 10.171875 -51.125 "/></g></g></g><g fill="#03030b" fill-opacity="1"><g transform="translate(209.766078, 216.889819)"><g><path d="M 27.1875 -1.8125 C 25.882812 -1.082031 24.390625 -0.507812 22.703125 -0.09375 C 21.023438 0.3125 19.328125 0.515625 17.609375 0.515625 C 14.148438 0.515625 11.351562 -0.472656 9.21875 -2.453125 C 7.082031 -4.441406 6.015625 -7.179688 6.015625 -10.671875 L 6.015625 -25.6875 L 1.171875 -25.6875 L 1.171875 -33.328125 L 6.015625 -33.328125 L 6.015625 -43.03125 L 17.46875 -43.03125 L 17.46875 -33.328125 L 26.53125 -33.328125 L 26.53125 -25.6875 L 17.46875 -25.6875 L 17.46875 -12.484375 C 17.46875 -10.023438 18.484375 -8.796875 20.515625 -8.796875 C 21.765625 -8.796875 23.253906 -9.1875 24.984375 -9.96875 Z M 27.1875 -1.8125 "/></g></g></g><g fill="#03030b" fill-opacity="1"><g transform="translate(234.485142, 216.889819)"><g><path d="M 20.640625 -35.40625 C 24.441406 -35.40625 27.785156 -34.660156 30.671875 -33.171875 C 33.566406 -31.679688 35.8125 -29.585938 37.40625 -26.890625 C 39 -24.191406 39.796875 -21.070312 39.796875 -17.53125 C 39.796875 -13.957031 39 -10.820312 37.40625 -8.125 C 35.8125 -5.425781 33.566406 -3.332031 30.671875 -1.84375 C 27.785156 -0.351562 24.441406 0.390625 20.640625 0.390625 C 16.847656 0.390625 13.503906 -0.351562 10.609375 -1.84375 C 7.722656 -3.332031 5.488281 -5.425781 3.90625 -8.125 C 2.332031 -10.820312 1.546875 -13.957031 1.546875 -17.53125 C 1.546875 -21.070312 2.332031 -24.191406 3.90625 -26.890625 C 5.488281 -29.585938 7.722656 -31.679688 10.609375 -33.171875 C 13.503906 -34.660156 16.847656 -35.40625 20.640625 -35.40625 Z M 20.640625 -26.078125 C 18.398438 -26.078125 16.585938 -25.28125 15.203125 -23.6875 C 13.828125 -22.09375 13.140625 -20 13.140625 -17.40625 C 13.140625 -14.78125 13.828125 -12.664062 15.203125 -11.0625 C 16.585938 -9.46875 18.398438 -8.671875 20.640625 -8.671875 C 22.929688 -8.671875 24.765625 -9.46875 26.140625 -11.0625 C 27.523438 -12.664062 28.21875 -14.78125 28.21875 -17.40625 C 28.21875 -20 27.515625 -22.09375 26.109375 -23.6875 C 24.710938 -25.28125 22.890625 -26.078125 20.640625 -26.078125 Z M 20.640625 -26.078125 "/></g></g></g><g fill="#7160f5" fill-opacity="1"><g transform="translate(272.219458, 216.889819)"><g><path d="M 50.34375 0 L 37.734375 0 L 34.625 -8.03125 L 15.015625 -8.03125 L 11.84375 0 L -0.328125 0 L 19.15625 -45.375 L 31.328125 -45.375 Z M 24.921875 -33.265625 L 18.578125 -17.078125 L 31.125 -17.078125 Z M 24.921875 -33.265625 "/></g></g></g><g fill="#7160f5" fill-opacity="1"><g transform="translate(318.681415, 216.889819)"><g><path d="M 4.40625 0 L 4.40625 -45.375 L 16.25 -45.375 L 16.25 0 Z M 4.40625 0 "/></g></g></g><g fill="#03030b" fill-opacity="1"><g transform="translate(133.8631, 216.278078)"><g><path d="M 21.875 -39.34375 C 20.707031 -39.34375 19.753906 -39.019531 19.015625 -38.375 C 18.285156 -37.726562 17.921875 -36.800781 17.921875 -35.59375 L 17.921875 -33.328125 L 25.6875 -33.328125 L 25.6875 -25.6875 L 17.921875 -25.6875 L 17.921875 0 L 6.46875 0 L 6.46875 -25.6875 L 1.75 -25.6875 L 1.75 -33.328125 L 6.46875 -33.328125 L 6.46875 -36.5625 C 6.46875 -40.269531 7.707031 -43.191406 10.1875 -45.328125 C 12.675781 -47.460938 15.859375 -48.53125 19.734375 -48.53125 C 22.285156 -48.53125 24.789062 -48.082031 27.25 -47.1875 L 25.765625 -38.4375 C 24.035156 -39.039062 22.738281 -39.34375 21.875 -39.34375 Z M 21.875 -39.34375 "/></g></g></g></svg>