<svg width="398" height="119" viewBox="0 0 398 119" fill="none" xmlns="http://www.w3.org/2000/svg">
<g clip-path="url(#clip0_1_2)">
<mask id="mask0_1_2" style="mask-type:luminance" maskUnits="userSpaceOnUse" x="47" y="-1" width="72" height="97">
<path d="M47 -0.453125H119V95.6667H47V-0.453125Z" fill="white"/>
</mask>
<g mask="url(#mask0_1_2)">
<path d="M70.8125 35.4063L83.0677 23.151L118.917 59.0104L83.0677 94.8698L70.7813 82.5729L94.3698 58.974L70.8125 35.4063ZM47.2188 11.8073L59.5104 24.099L71.7604 11.8385L59.4792 -0.453125L47.2188 11.8073Z" fill="#7160F5"/>
</g>
<mask id="mask1_1_2" style="mask-type:luminance" maskUnits="userSpaceOnUse" x="0" y="22" width="73" height="98">
<path d="M0.041748 22.3334H72.3334V119.26H0.041748V22.3334Z" fill="white"/>
</mask>
<g mask="url(#mask1_1_2)">
<path d="M48.172 82.5782L71.7605 106.177L59.5105 118.438L23.6615 82.5782L59.5782 46.6511L71.8282 58.9063L48.172 82.5782ZM48.2761 35.3386L35.9845 23.0469L0.0677948 58.974L12.3595 71.2709L48.2761 35.3386Z" fill="white"/>
</g>
<path d="M187.545 50.1625C195.139 50.1625 200.983 52.4073 205.066 56.8916C209.149 61.3812 211.191 67.5375 211.191 75.3708C211.191 76.5791 211.16 77.4958 211.108 78.1208H178.67C179.42 80.7771 180.712 82.8083 182.545 84.225C184.389 85.6312 186.634 86.3291 189.274 86.3291C191.285 86.3291 193.222 85.9281 195.087 85.1208C196.962 84.3187 198.675 83.1364 200.233 81.5791L208.274 89.6C205.858 92.3083 202.931 94.3708 199.504 95.7875C196.087 97.1937 192.217 97.8916 187.899 97.8916C182.899 97.8916 178.524 96.9125 174.774 94.9541C171.035 92.9958 168.175 90.2406 166.191 86.6833C164.201 83.1156 163.212 78.9698 163.212 74.2458C163.212 69.4698 164.217 65.2562 166.233 61.6C168.243 57.9489 171.092 55.1312 174.774 53.1416C178.467 51.1573 182.722 50.1625 187.545 50.1625ZM196.274 69.9333C196.274 67.225 195.483 65.0531 193.899 63.4125C192.316 61.7771 190.233 60.9541 187.649 60.9541C185.233 60.9541 183.201 61.7614 181.566 63.3708C179.925 64.9854 178.842 67.1729 178.316 69.9333H196.274Z" fill="white"/>
<path d="M214.31 97.3708V50.6833H229.581V97.3708H214.31ZM221.998 29.2041C224.342 29.2041 226.279 29.9697 227.81 31.4958C229.336 33.0114 230.102 34.9749 230.102 37.3916C230.102 39.7562 229.336 41.7145 227.81 43.2666C226.279 44.8239 224.342 45.5999 221.998 45.5999C219.633 45.5999 217.691 44.8239 216.164 43.2666C214.633 41.7145 213.873 39.7562 213.873 37.3916C213.873 34.9749 214.633 33.0114 216.164 31.4958C217.691 29.9697 219.633 29.2041 221.998 29.2041Z" fill="white"/>
<path d="M266.947 94.9541C265.208 95.9281 263.218 96.6937 260.968 97.2458C258.729 97.7875 256.468 98.0583 254.177 98.0583C249.562 98.0583 245.833 96.7406 242.989 94.1C240.14 91.4489 238.718 87.7979 238.718 83.1416V63.1208H232.26V52.9333H238.718V39.9958H253.989V52.9333H266.072V63.1208H253.989V80.725C253.989 84.0062 255.343 85.6416 258.052 85.6416C259.718 85.6416 261.703 85.1208 264.01 84.0791L266.947 94.9541Z" fill="white"/>
<path d="M291.18 50.1625C296.248 50.1625 300.706 51.1573 304.555 53.1416C308.415 55.1312 311.409 57.9229 313.534 61.5166C315.659 65.1156 316.722 69.2771 316.722 73.9958C316.722 78.7614 315.659 82.9437 313.534 86.5375C311.409 90.1364 308.415 92.9281 304.555 94.9125C300.706 96.9021 296.248 97.8916 291.18 97.8916C286.123 97.8916 281.665 96.9021 277.805 94.9125C273.956 92.9281 270.977 90.1364 268.868 86.5375C266.769 82.9437 265.722 78.7614 265.722 73.9958C265.722 69.2771 266.769 65.1156 268.868 61.5166C270.977 57.9229 273.956 55.1312 277.805 53.1416C281.665 51.1573 286.123 50.1625 291.18 50.1625ZM291.18 62.6C288.191 62.6 285.774 63.6625 283.93 65.7875C282.097 67.9125 281.18 70.7041 281.18 74.1625C281.18 77.6625 282.097 80.4854 283.93 82.6208C285.774 84.7458 288.191 85.8083 291.18 85.8083C294.232 85.8083 296.68 84.7458 298.513 82.6208C300.357 80.4854 301.284 77.6625 301.284 74.1625C301.284 70.7041 300.347 67.9125 298.472 65.7875C296.607 63.6625 294.18 62.6 291.18 62.6Z" fill="white"/>
<path d="M381.09 97.3708H364.278L360.132 86.6625H333.986L329.757 97.3708H313.528L339.507 36.8708H355.736L381.09 97.3708ZM347.195 53.0166L338.736 74.6H355.465L347.195 53.0166Z" fill="#7160F5"/>
<path d="M381.795 97.3708V36.8708H397.587V97.3708H381.795Z" fill="#7160F5"/>
<path d="M158.651 44.9125C157.093 44.9125 155.823 45.3448 154.838 46.2041C153.864 47.0687 153.38 48.3031 153.38 49.9125V52.9333H163.734V63.1208H153.38V97.3708H138.109V63.1208H131.817V52.9333H138.109V48.6208C138.109 43.6781 139.76 39.7823 143.067 36.9333C146.385 34.0896 150.63 32.6625 155.797 32.6625C159.198 32.6625 162.536 33.2614 165.817 34.4541L163.838 46.1208C161.531 45.3187 159.802 44.9125 158.651 44.9125Z" fill="white"/>
</g>
<defs>
<clipPath id="clip0_1_2">
<rect width="398" height="119" fill="white"/>
</clipPath>
</defs>
</svg>
