<svg xmlns="http://www.w3.org/2000/svg" xmlns:xlink="http://www.w3.org/1999/xlink" width="500" zoomAndPan="magnify" viewBox="0 0 375 374.999991" height="500" preserveAspectRatio="xMidYMid meet" version="1.0"><defs><clipPath id="4f2e8f8253"><path d="M 168 94.441406 L 280.441406 94.441406 L 280.441406 244 L 168 244 Z M 168 94.441406 " clip-rule="nonzero"/></clipPath><clipPath id="26aa01ead2"><path d="M 94.441406 131 L 207 131 L 207 280.441406 L 94.441406 280.441406 Z M 94.441406 131 " clip-rule="nonzero"/></clipPath></defs><rect x="-37.5" width="450" fill="#ffffff" y="-37.499999" height="449.999989" fill-opacity="1"/><rect x="-37.5" width="450" fill="#03030b" y="-37.499999" height="449.999989" fill-opacity="1"/><g clip-path="url(#4f2e8f8253)"><path fill="#7160f5" d="M 205.21875 150.574219 L 224.402344 131.386719 L 280.515625 187.519531 L 224.402344 243.648438 L 205.164062 224.40625 L 242.09375 187.460938 Z M 168.289062 113.628906 L 187.523438 132.875 L 206.703125 113.683594 L 187.472656 94.441406 Z M 168.289062 113.628906 " fill-opacity="1" fill-rule="nonzero"/></g><g clip-path="url(#26aa01ead2)"><path fill="#ffffff" d="M 169.773438 224.410156 L 206.703125 261.355469 L 187.523438 280.542969 L 131.410156 224.410156 L 187.628906 168.167969 L 206.808594 187.359375 Z M 169.9375 150.46875 L 150.699219 131.226562 L 94.480469 187.464844 L 113.714844 206.707031 Z M 169.9375 150.46875 " fill-opacity="1" fill-rule="nonzero"/></g></svg>