<svg width="100" height="100" viewBox="0 0 100 100" fill="none" xmlns="http://www.w3.org/2000/svg">
  <rect width="100" height="100" rx="20" fill="#F5F5F5"/>
  <path d="M50 20C42.5 20 35 23.5 30 30C25 36.5 25 45 30 51.5C35 58 42.5 61.5 50 61.5C57.5 61.5 65 58 70 51.5C75 45 75 36.5 70 30C65 23.5 57.5 20 50 20ZM50 55C45 55 40 53 37.5 48.5C35 44 35 38.5 37.5 34C40 29.5 45 27.5 50 27.5C55 27.5 60 29.5 62.5 34C65 38.5 65 44 62.5 48.5C60 53 55 55 50 55Z" fill="#10A37F"/>
  <path d="M80 50C80 42.5 76.5 35 70 30L62.5 40C65 44.5 65 50 62.5 54.5L70 65C76.5 60 80 52.5 80 50Z" fill="#10A37F"/>
  <path d="M20 50C20 42.5 23.5 35 30 30L37.5 40C35 44.5 35 50 37.5 54.5L30 65C23.5 60 20 52.5 20 50Z" fill="#10A37F"/>
  <path d="M50 80C57.5 80 65 76.5 70 70L62.5 60C60 63.5 55 65 50 65C45 65 40 63.5 37.5 60L30 70C35 76.5 42.5 80 50 80Z" fill="#10A37F"/>
  <path d="M50 20C42.5 20 35 23.5 30 30L37.5 40C40 36.5 45 35 50 35C55 35 60 36.5 62.5 40L70 30C65 23.5 57.5 20 50 20Z" fill="#10A37F"/>
</svg>
