<svg width="100" height="100" viewBox="0 0 100 100" fill="none" xmlns="http://www.w3.org/2000/svg">
  <circle cx="50" cy="50" r="45" fill="#25D366"/>
  <path d="M69.5 30.5C62.5 23.5 52.5 20 43 23C33.5 26 26 35 25 45C24.5 50 25.5 55 27.5 59.5L25 75L41 72.5C45.5 74.5 50 75 54.5 75C65.5 74.5 75 67 77.5 56C80 45.5 76.5 37.5 69.5 30.5ZM65 60C64 61.5 62.5 62.5 60.5 63C59 63.5 56 64 48.5 60.5C39.5 56.5 34 47 33.5 46.5C33 46 29 40.5 29 34.5C29 28.5 31.5 26 32.5 25C33.5 24 34.5 23.5 35.5 23.5H38C39 23.5 40.5 23.5 41.5 26C42.5 28.5 45 34.5 45 35C45 35.5 45 36 44.5 36.5C44 37 43.5 37.5 43 38.5L41 40.5C40.5 41 40 41.5 40.5 42.5C41 43.5 43.5 47.5 47 50.5C51.5 54.5 55 56 56 56.5C57 57 57.5 57 58 56.5C58.5 56 61 53 61.5 52C62 51 62.5 51 63.5 51.5C64.5 52 70.5 55 71.5 55.5C72.5 56 73 56.5 73 57C73 58 71.5 59.5 69.5 62C68.5 61.5 67 61 65 60Z" fill="white"/>
</svg>
